# Blender 3.1.0
# www.blender.org
mtllib weapon_Helmet.mtl
o Minion_Helmet
v -0.398867 0.000000 -0.398867
v -0.368505 0.261437 -0.368505
v 0.000000 0.261437 -0.521145
v 0.000000 0.000000 -0.564083
v 0.000000 -0.000000 0.564083
v 0.000000 0.261437 0.521145
v -0.368505 0.261437 0.368505
v -0.398867 -0.000000 0.398867
v -0.521145 0.261437 0.000000
v -0.564083 0.000000 0.000000
v -0.284549 0.554635 -0.284549
v 0.000000 0.554635 -0.402412
v 0.000000 0.554635 0.402412
v -0.284549 0.554635 0.284549
v -0.402412 0.554635 0.000000
v 0.000000 0.683167 0.000000
v 0.000000 0.401544 0.000000
v -0.205256 0.486318 0.000000
v -0.401671 0.684180 0.000000
v -0.430389 0.664951 0.083437
v -0.231263 0.463557 0.083437
v -0.499720 0.618530 0.117997
v -0.294051 0.408609 0.117997
v -0.569050 0.572109 0.083437
v -0.356839 0.353660 0.083437
v -0.597768 0.552880 0.000000
v -0.382847 0.330900 0.000000
v -0.430519 0.827433 0.000000
v -0.452069 0.834815 0.054994
v -0.504096 0.852636 0.077773
v -0.556122 0.870458 0.054994
v -0.577672 0.877840 0.000000
v -0.366257 1.023293 0.000000
v 0.398867 0.000000 -0.398867
v 0.368505 0.261437 -0.368505
v 0.398867 -0.000000 0.398867
v 0.368505 0.261437 0.368505
v 0.564083 0.000000 0.000000
v 0.521145 0.261437 0.000000
v 0.284549 0.554635 -0.284549
v 0.284549 0.554635 0.284549
v 0.402412 0.554635 0.000000
v 0.205256 0.486318 0.000000
v 0.231263 0.463557 0.083437
v 0.430389 0.664951 0.083437
v 0.401671 0.684180 0.000000
v 0.294051 0.408609 0.117997
v 0.499720 0.618530 0.117997
v 0.356839 0.353660 0.083437
v 0.569050 0.572109 0.083437
v 0.382847 0.330900 0.000000
v 0.597768 0.552880 0.000000
v 0.452069 0.834815 0.054994
v 0.430519 0.827433 0.000000
v 0.504096 0.852636 0.077773
v 0.556122 0.870458 0.054994
v 0.577672 0.877840 0.000000
v 0.366257 1.023293 0.000000
v 0.430389 0.664951 -0.083437
v 0.231263 0.463557 -0.083437
v 0.499720 0.618530 -0.117997
v 0.294051 0.408609 -0.117997
v 0.569050 0.572109 -0.083437
v 0.356839 0.353660 -0.083437
v 0.452069 0.834815 -0.054994
v 0.504096 0.852636 -0.077773
v 0.556122 0.870458 -0.054994
v -0.231263 0.463557 -0.083437
v -0.430389 0.664951 -0.083437
v -0.294051 0.408609 -0.117997
v -0.499720 0.618530 -0.117997
v -0.356839 0.353660 -0.083437
v -0.569050 0.572109 -0.083437
v -0.452069 0.834815 -0.054994
v -0.504096 0.852636 -0.077773
v -0.556122 0.870458 -0.054994
vn -0.6978 0.1621 -0.6978
vn -0.7005 0.1690 -0.6934
vn -0.3782 0.1572 -0.9123
vn -0.3784 0.1500 -0.9134
vn -0.3784 0.1500 0.9134
vn -0.3782 0.1572 0.9123
vn -0.6970 0.1689 0.6970
vn -0.6978 0.1621 0.6978
vn -0.9856 0.1689 -0.0000
vn -0.9868 0.1621 -0.0000
vn -0.2846 0.6684 0.6872
vn -0.5071 0.6970 0.5071
vn 0.9856 0.1689 -0.0000
vn 0.7171 0.6969 0.0008
vn 0.5071 0.6970 0.5071
vn 0.6934 0.1690 0.7005
vn 0.3782 0.1572 -0.9123
vn 0.2846 0.6684 -0.6872
vn 0.5071 0.6970 -0.5071
vn 0.7005 0.1690 -0.6934
vn -0.7171 0.6970 -0.0000
vn -0.5071 0.6970 -0.5071
vn -0.2203 0.9754 -0.0000
vn -0.2846 0.6684 -0.6872
vn 0.2336 -0.7921 0.5639
vn 0.4496 -0.8932 -0.0000
vn 0.4101 -0.8147 0.4101
vn 0.4101 -0.8147 -0.4101
vn 0.2336 -0.7921 -0.5639
vn 0.5799 -0.8147 -0.0000
vn 0.6573 0.6512 0.3794
vn 0.7109 0.5897 0.3832
vn 0.5120 0.4325 0.7421
vn 0.5078 0.5021 0.7000
vn -0.0695 -0.0153 0.9975
vn 0.0038 0.0050 1.0000
vn -0.6088 -0.4142 0.6766
vn -0.5076 -0.4931 0.7066
vn -0.7582 -0.5247 0.3870
vn -0.6641 -0.6440 0.3798
vn -0.0208 0.3058 0.9519
vn -0.6152 0.4979 0.6113
vn -0.7789 0.5208 0.3495
vn -0.6764 -0.0015 -0.7366
vn 0.0208 0.3058 -0.9519
vn 0.0695 -0.0153 -0.9975
vn -0.5120 0.4325 -0.7422
vn -0.6764 -0.0015 0.7366
vn -0.9106 -0.1611 0.3806
vn -0.7109 0.5897 0.3832
vn -0.5120 0.4325 0.7422
vn 0.9106 -0.1611 0.3806
vn 0.2121 0.4071 0.8884
vn 0.6764 -0.0015 0.7366
vn 0.6978 0.1621 -0.6978
vn 0.3784 0.1500 -0.9134
vn 0.3784 0.1500 0.9134
vn 0.6978 0.1621 0.6978
vn 0.3782 0.1572 0.9123
vn 0.9868 0.1621 -0.0000
vn 0.2846 0.6684 0.6872
vn 0.2203 0.9754 -0.0000
vn -0.2336 -0.7921 0.5639
vn -0.4101 -0.8147 0.4101
vn -0.4496 -0.8932 -0.0000
vn -0.4101 -0.8147 -0.4101
vn -0.2336 -0.7921 -0.5639
vn -0.5799 -0.8147 -0.0000
vn -0.6573 0.6512 0.3794
vn -0.5078 0.5021 0.7000
vn -0.0038 0.0050 1.0000
vn 0.0695 -0.0153 0.9975
vn 0.5076 -0.4931 0.7066
vn 0.6088 -0.4143 0.6766
vn 0.6641 -0.6440 0.3798
vn 0.7582 -0.5247 0.3870
vn 0.0208 0.3058 0.9519
vn 0.6152 0.4979 0.6113
vn 0.6152 0.4979 -0.6113
vn 0.6088 -0.4142 -0.6766
vn -0.7109 0.5897 -0.3832
vn -0.9106 -0.1611 -0.3806
vn -0.2121 0.4071 0.8884
vn 0.7789 0.5208 0.3495
vn -0.6573 0.6512 -0.3794
vn -0.5078 0.5021 -0.7000
vn -0.0038 0.0050 -1.0000
vn 0.5076 -0.4931 -0.7066
vn 0.7582 -0.5247 -0.3870
vn 0.6641 -0.6440 -0.3798
vn -0.6152 0.4979 -0.6113
vn -0.0208 0.3058 -0.9519
vn -0.0695 -0.0153 -0.9975
vn -0.6088 -0.4143 -0.6766
vn 0.6764 -0.0015 -0.7366
vn 0.9106 -0.1611 -0.3806
vn 0.7109 0.5897 -0.3832
vn 0.5120 0.4325 -0.7422
vn -0.2121 0.4071 -0.8884
vn 0.7789 0.5208 -0.3495
vn 0.6573 0.6512 -0.3794
vn 0.5078 0.5021 -0.7000
vn 0.0038 0.0050 -1.0000
vn -0.5076 -0.4931 -0.7066
vn -0.6641 -0.6440 -0.3798
vn -0.7582 -0.5247 -0.3870
vn -0.7789 0.5208 -0.3495
vn 0.2121 0.4071 -0.8884
vt 0.587359 0.128649
vt 0.610852 0.598114
vt 0.504470 0.179668
vt 0.083772 0.522425
vt 0.404053 0.077449
vt 0.475885 0.002001
vt 0.154350 0.595861
vt 0.727975 0.715238
vt 0.600714 0.594112
vt 0.272940 0.002001
vt 0.328091 0.880875
vt 0.509190 0.558237
vt 0.179201 0.039275
vt 0.559035 0.425117
vt 0.649811 0.441631
vt 0.328091 0.715238
vt 0.558017 0.299295
vt 0.649811 0.281931
vt 0.445214 0.598114
vt 0.424469 0.241713
vt 0.016325 0.423457
vt 0.335244 0.179567
vt 0.409094 0.491612
vt 0.076938 0.109109
vt 0.464267 0.404316
vt 0.465800 0.316704
vt 0.328091 0.349371
vt 0.002001 0.256162
vt 0.528033 0.798057
vt 0.794011 0.020051
vt 0.142199 0.817626
vt 0.123255 0.721575
vt 0.775067 0.116102
vt 0.743839 0.112387
vt 0.762758 0.014663
vt 0.713724 0.107811
vt 0.732311 0.010269
vt 0.684054 0.106847
vt 0.700261 0.006020
vt 0.653813 0.110461
vt 0.002001 0.727215
vt 0.666748 0.002001
vt 0.014937 0.835675
vt 0.125085 0.670327
vt 0.776897 0.167349
vt 0.756491 0.172325
vt 0.739235 0.180840
vt 0.724172 0.192239
vt 0.709078 0.207445
vt 0.057266 0.630232
vt 0.794011 0.237813
vt 0.142199 0.599863
vt 0.262739 0.471587
vt 0.727975 0.880875
vt 0.181012 0.421905
vt 0.324089 0.158226
vt 0.445214 0.997999
vt 0.231720 0.175598
vt 0.324089 0.320581
vt 0.610852 0.997999
vt 0.232172 0.304373
vt 0.104166 0.360771
vt 0.134098 0.195890
vt 0.140909 0.282040
vt 0.286399 0.817626
vt 0.794011 0.259865
vt 0.255146 0.823013
vt 0.236227 0.725290
vt 0.267455 0.721575
vt 0.775067 0.355916
vt 0.224699 0.827408
vt 0.206112 0.729866
vt 0.192650 0.831656
vt 0.176442 0.730830
vt 0.159137 0.835675
vt 0.666748 0.241815
vt 0.146201 0.727215
vt 0.653813 0.350275
vt 0.248879 0.665351
vt 0.269285 0.670327
vt 0.776897 0.407164
vt 0.231623 0.656837
vt 0.216560 0.645438
vt 0.201466 0.630232
vt 0.709078 0.447259
vt 0.286399 0.599863
vt 0.794011 0.477628
vt 0.743839 0.352201
vt 0.762758 0.254478
vt 0.713724 0.347625
vt 0.732311 0.250083
vt 0.684054 0.346661
vt 0.700261 0.245834
vt 0.756491 0.412139
vt 0.739235 0.420654
vt 0.724172 0.432053
vt 0.110947 0.823013
vt 0.092027 0.725290
vt 0.080500 0.827408
vt 0.061912 0.729866
vt 0.048450 0.831656
vt 0.032242 0.730830
vt 0.104679 0.665351
vt 0.087423 0.656837
vt 0.072360 0.645438
s 1
usemtl Default_OBJ.001
f 1/1/1 2/3/2 3/5/3 4/6/4
f 5/9/5 6/12/6 7/14/7 8/15/8
f 8/15/8 7/14/7 9/17/9 10/18/10
f 10/18/10 9/17/9 2/3/2 1/1/1
f 13/23/11 14/25/12 7/14/7 6/12/6
f 39/61/13 42/64/14 41/63/15 37/58/16
f 3/4/17 12/21/18 40/62/19 35/55/20
f 7/14/7 14/25/12 15/26/21 9/17/9
f 11/20/22 16/27/23 12/22/24
f 13/23/11 16/27/23 14/25/12
f 14/25/12 16/27/23 15/26/21
f 15/26/21 16/27/23 11/20/22
f 4/8/25 17/29/26 1/2/27
f 8/16/28 17/29/26 5/11/29
f 10/19/30 17/29/26 8/16/28
f 1/2/27 17/29/26 10/19/30
f 18/30/31 19/33/32 20/34/33 21/35/34
f 21/35/34 20/34/33 22/36/35 23/37/36
f 23/37/36 22/36/35 24/38/37 25/39/38
f 25/39/38 24/38/37 26/40/39 27/42/40
f 22/36/35 30/47/41 31/48/42 24/38/37
f 31/48/42 32/49/43 26/40/39 24/38/37
f 65/94/44 66/95/45 61/90/46 59/88/47
f 53/79/48 54/80/49 46/69/50 45/68/51
f 28/45/52 33/51/53 29/46/54
f 29/46/54 33/51/53 30/47/41
f 30/47/41 33/51/53 31/48/42
f 31/48/42 33/51/53 32/49/43
f 34/53/55 4/7/56 3/4/17 35/55/20
f 5/10/57 36/56/58 37/58/16 6/13/59
f 36/56/58 38/59/60 39/61/13 37/58/16
f 38/59/60 34/53/55 35/55/20 39/61/13
f 35/55/20 40/62/19 42/64/14 39/61/13
f 9/17/9 15/26/21 11/20/22 2/3/2
f 37/58/16 41/63/15 13/24/61 6/13/59
f 40/62/19 12/21/18 16/28/62
f 13/24/61 41/63/15 16/28/62
f 41/63/15 42/64/14 16/28/62
f 42/64/14 40/62/19 16/28/62
f 4/8/63 34/54/64 17/29/65
f 36/57/66 5/11/67 17/29/65
f 38/60/68 36/57/66 17/29/65
f 34/54/64 38/60/68 17/29/65
f 43/65/69 44/67/70 45/68/51 46/69/50
f 44/67/70 47/71/71 48/72/72 45/68/51
f 47/71/71 49/73/73 50/74/74 48/72/72
f 49/73/73 51/75/75 52/77/76 50/74/74
f 48/72/72 55/82/77 53/79/48 45/68/51
f 50/74/74 56/83/78 55/82/77 48/72/72
f 61/90/46 66/95/45 67/96/79 63/92/80
f 46/70/81 54/81/82 65/94/44 59/88/47
f 54/80/49 53/79/48 58/86/83
f 53/79/48 55/82/77 58/86/83
f 55/82/77 56/83/78 58/86/83
f 56/83/78 57/84/84 58/86/83
f 43/66/85 46/70/81 59/88/47 60/89/86
f 60/89/86 59/88/47 61/90/46 62/91/87
f 62/91/87 61/90/46 63/92/80 64/93/88
f 64/93/88 63/92/80 52/78/89 51/76/90
f 76/105/91 75/104/92 71/100/93 73/102/94
f 74/103/95 28/44/96 19/32/97 69/98/98
f 52/77/76 57/84/84 56/83/78 50/74/74
f 29/46/54 30/47/41 22/36/35 20/34/33
f 54/81/82 58/87/99 65/94/44
f 65/94/44 58/87/99 66/95/45
f 66/95/45 58/87/99 67/96/79
f 67/96/79 58/87/99 57/85/100
f 18/31/101 68/97/102 69/98/98 19/32/97
f 68/97/102 70/99/103 71/100/93 69/98/98
f 70/99/103 72/101/104 73/102/94 71/100/93
f 72/101/104 27/43/105 26/41/106 73/102/94
f 71/100/93 75/104/92 74/103/95 69/98/98
f 26/41/106 32/50/107 76/105/91 73/102/94
f 67/96/79 57/85/100 52/78/89 63/92/80
f 28/44/96 74/103/95 33/52/108
f 74/103/95 75/104/92 33/52/108
f 75/104/92 76/105/91 33/52/108
f 76/105/91 32/50/107 33/52/108
f 28/45/52 29/46/54 20/34/33 19/33/32
f 11/20/22 12/22/24 3/5/3 2/3/2
