# Blender 3.1.0
# www.blender.org
mtllib weapon_Wand.mtl
o Minion_Wand
v -0.085472 1.875648 -0.077778
v -0.085472 1.875648 0.077778
v -0.610940 2.571510 0.077778
v -0.610940 2.571510 -0.077778
v -0.390555 3.076160 -0.077776
v -0.390555 3.076160 0.077778
v -0.319646 2.994136 0.077778
v -0.319646 2.994136 -0.077778
v -0.462620 2.577233 -0.077778
v -0.462620 2.577233 0.077778
v -0.071324 2.159547 0.077778
v -0.071324 2.159547 -0.077778
v -0.300000 2.713820 0.300000
v 0.300000 2.713820 0.300000
v 0.000000 3.108265 0.000002
v 0.300000 2.713820 -0.300000
v -0.300000 2.713820 -0.300000
v 0.000000 2.319376 0.000000
v 0.085472 1.875648 0.077778
v 0.085472 1.875648 -0.077778
v 0.610940 2.571510 -0.077778
v 0.610940 2.571510 0.077778
v 0.390555 3.076160 0.077778
v 0.390555 3.076160 -0.077776
v 0.319646 2.994136 -0.077778
v 0.319646 2.994136 0.077778
v 0.462620 2.577233 0.077778
v 0.462620 2.577233 -0.077778
v 0.071324 2.159547 -0.077778
v 0.071324 2.159547 0.077778
v -0.077778 1.875648 0.085472
v 0.077778 1.875648 0.085472
v 0.077778 2.571510 0.610940
v -0.077778 2.571510 0.610940
v -0.077778 3.076160 0.390557
v 0.077778 3.076160 0.390557
v 0.077778 2.994136 0.319646
v -0.077778 2.994136 0.319646
v -0.077778 2.577233 0.462620
v 0.077778 2.577233 0.462620
v 0.077778 2.159547 0.071324
v -0.077778 2.159547 0.071324
v 0.077778 1.875648 -0.085472
v -0.077778 1.875648 -0.085472
v -0.077778 2.571510 -0.610940
v 0.077778 2.571510 -0.610940
v 0.077778 3.076160 -0.390554
v -0.077778 3.076160 -0.390554
v -0.077778 2.994136 -0.319646
v 0.077778 2.994136 -0.319646
v 0.077778 2.577233 -0.462620
v -0.077778 2.577233 -0.462620
v -0.077778 2.159547 -0.071324
v 0.077778 2.159547 -0.071324
v 0.114670 2.204899 -0.117147
v 0.112995 0.017632 -0.115437
v -0.112995 0.017632 -0.115437
v -0.114670 2.204899 -0.117147
v -0.112995 0.017631 0.115437
v -0.114670 2.204899 0.117147
v 0.112995 0.017631 0.115437
v 0.114670 2.204899 0.117147
vn -0.7980 -0.6026 -0.0000
vn 0.7565 0.6540 -0.0000
vn 0.7298 0.6837 -0.0000
vn -0.0000 -0.0000 1.0000
vn -0.0000 -0.0000 -1.0000
vn -0.9164 0.4002 -0.0000
vn 0.9459 -0.3244 -0.0000
vn -0.0000 0.6054 0.7959
vn -0.0000 0.6054 -0.7959
vn 0.7959 0.6054 -0.0000
vn -0.7959 0.6054 -0.0000
vn -0.0000 -0.6054 0.7959
vn 0.7959 -0.6054 -0.0000
vn -0.0000 -0.6054 -0.7959
vn -0.7959 -0.6054 -0.0000
vn 0.7980 -0.6026 -0.0000
vn -0.7565 0.6540 -0.0000
vn -0.7298 0.6837 -0.0000
vn 0.9164 0.4002 -0.0000
vn -0.9459 -0.3244 -0.0000
vn -0.0000 -0.6026 0.7980
vn -0.0000 0.6540 -0.7565
vn -0.0000 0.6837 -0.7298
vn 1.0000 -0.0000 -0.0000
vn -1.0000 -0.0000 -0.0000
vn -0.0000 0.4002 0.9164
vn -0.0000 -0.3244 -0.9459
vn -0.0000 -0.6026 -0.7980
vn -0.0000 0.6540 0.7565
vn -0.0000 0.6837 0.7298
vn -0.0000 0.4002 -0.9164
vn -0.0000 -0.3244 0.9459
vn 0.1503 -0.0877 -0.9847
vn -0.1116 -0.2243 -0.9681
vn -0.2370 0.0784 -0.9683
vn 0.1504 0.0860 -0.9849
vn 0.9681 -0.2377 -0.0793
vn 0.9684 0.1107 -0.2236
vn 0.9849 0.1496 0.0868
vn 0.9847 -0.1512 0.0867
vn -0.1503 -0.0877 0.9847
vn 0.1116 -0.2243 0.9681
vn 0.2370 0.0784 0.9683
vn -0.1504 0.0860 0.9849
vn -0.9681 -0.2377 0.0793
vn -0.9684 0.1107 0.2236
vn -0.9849 0.1496 -0.0868
vn -0.9847 -0.1512 -0.0867
vn -0.0868 0.9848 0.1504
vn 0.0868 0.9848 0.1504
vn 0.0868 0.9848 -0.1504
vn -0.0868 0.9848 -0.1504
vn -0.2236 -0.9683 -0.1116
vn 0.0793 -0.9683 -0.2370
vn 0.2236 -0.9683 0.1116
vn -0.0793 -0.9683 0.2370
vt 0.868907 0.004225
vt 0.400466 0.368174
vt 0.914653 0.004225
vt 0.652465 0.376624
vt 0.914653 0.207160
vt 0.562713 0.616822
vt 0.868907 0.207160
vt 0.310714 0.127976
vt 0.923103 0.562258
vt 0.868907 0.356267
vt 0.415156 0.004225
vt 0.968849 0.562258
vt 0.914653 0.356267
vt 0.667154 0.740573
vt 0.680262 0.711508
vt 0.968849 0.586606
vt 0.923103 0.586606
vt 0.428264 0.033290
vt 0.923103 0.708740
vt 0.353000 0.138802
vt 0.604999 0.605996
vt 0.968849 0.708740
vt 0.968849 0.832824
vt 0.680262 0.455454
vt 0.923103 0.832824
vt 0.428263 0.289344
vt 0.145407 0.694968
vt 0.601528 0.893986
vt 0.005399 0.802352
vt 0.302264 0.694968
vt 0.004225 0.655858
vt 0.310714 0.749023
vt 0.161083 0.655858
vt 0.460346 0.933096
vt 0.162257 0.802353
vt 0.451896 0.788133
vt 0.311889 0.895517
vt 0.461521 0.786602
vt 0.145407 0.839931
vt 0.302264 0.839931
vt 0.451896 0.933096
vt 0.601528 0.749023
vt 0.914653 0.716759
vt 0.526466 0.368174
vt 0.868907 0.716759
vt 0.526466 0.376624
vt 0.868907 0.513824
vt 0.436714 0.616822
vt 0.914653 0.513824
vt 0.436714 0.127976
vt 0.968849 0.553807
vt 0.914653 0.364717
vt 0.541155 0.004225
vt 0.923103 0.553807
vt 0.868907 0.364717
vt 0.541155 0.740573
vt 0.554263 0.711508
vt 0.923103 0.529459
vt 0.968849 0.529459
vt 0.554263 0.033290
vt 0.968849 0.407325
vt 0.479000 0.138802
vt 0.479000 0.605996
vt 0.923103 0.407325
vt 0.923103 0.283241
vt 0.554263 0.455454
vt 0.968849 0.283241
vt 0.554263 0.289344
vt 0.814711 0.004225
vt 0.400466 0.740573
vt 0.860457 0.004225
vt 0.652465 0.004225
vt 0.860457 0.207161
vt 0.562713 0.244423
vt 0.814711 0.207161
vt 0.310714 0.500375
vt 0.968848 0.274791
vt 0.814711 0.356267
vt 0.415155 0.376624
vt 0.923103 0.274791
vt 0.860457 0.356267
vt 0.667154 0.368174
vt 0.680262 0.339109
vt 0.923103 0.250443
vt 0.968848 0.250443
vt 0.428263 0.405690
vt 0.968848 0.128308
vt 0.353000 0.511202
vt 0.604999 0.233597
vt 0.923103 0.128308
vt 0.923103 0.004225
vt 0.680262 0.083055
vt 0.968849 0.004225
vt 0.428263 0.661743
vt 0.814711 0.364717
vt 0.778464 0.368174
vt 0.860457 0.364717
vt 0.778464 0.376624
vt 0.860457 0.567653
vt 0.688712 0.616822
vt 0.814711 0.567653
vt 0.688712 0.127975
vt 0.860457 0.995775
vt 0.814711 0.716759
vt 0.793154 0.004225
vt 0.814711 0.995775
vt 0.860457 0.716759
vt 0.793154 0.740573
vt 0.806261 0.711508
vt 0.814711 0.971427
vt 0.860457 0.971427
vt 0.806261 0.033290
vt 0.860457 0.849292
vt 0.730998 0.138802
vt 0.730998 0.605996
vt 0.814711 0.849292
vt 0.814711 0.725209
vt 0.806261 0.455454
vt 0.860457 0.725209
vt 0.806261 0.289344
vt 0.158927 0.647408
vt 0.150477 0.647408
vt 0.688712 0.749023
vt 0.159419 0.004225
vt 0.149974 0.004225
vt 0.680262 0.749023
vt 0.225878 0.004225
vt 0.004728 0.004225
vt 0.613804 0.749023
vt 0.226370 0.647408
vt 0.004225 0.647408
vt 0.756156 0.749023
vt 0.235313 0.004225
vt 0.072623 0.004225
vt 0.613804 0.816918
vt 0.234821 0.647408
vt 0.073126 0.647408
vt 0.756156 0.817924
vt 0.082079 0.004225
vt 0.301772 0.004225
vt 0.680262 0.816918
vt 0.081576 0.647408
vt 0.302264 0.647408
vt 0.688712 0.817924
s 0
usemtl Default_OBJ.001
f 1/1/1 2/3/1 3/5/1 4/7/1
f 5/9/2 6/12/2 7/16/2 8/17/2
f 9/19/3 10/22/3 11/23/3 12/25/3
f 2/4/4 11/24/4 10/21/4 3/6/4
f 12/26/5 1/2/5 4/8/5 9/20/5
f 4/7/6 3/5/6 6/13/6 5/10/6
f 3/6/4 10/21/4 7/15/4 6/14/4
f 10/22/7 9/19/7 8/17/7 7/16/7
f 9/20/5 4/8/5 5/11/5 8/18/5
f 13/27/8 14/29/8 15/31/8
f 15/32/9 16/36/9 17/37/9
f 14/30/10 16/35/10 15/33/10
f 17/38/11 13/28/11 15/34/11
f 18/39/12 14/29/12 13/27/12
f 18/40/13 16/35/13 14/30/13
f 17/37/14 16/36/14 18/41/14
f 18/42/15 13/28/15 17/38/15
f 19/43/16 20/45/16 21/47/16 22/49/16
f 23/51/17 24/54/17 25/58/17 26/59/17
f 27/61/18 28/64/18 29/65/18 30/67/18
f 20/46/5 29/66/5 28/63/5 21/48/5
f 30/68/4 19/44/4 22/50/4 27/62/4
f 22/49/19 21/47/19 24/55/19 23/52/19
f 21/48/5 28/63/5 25/57/5 24/56/5
f 28/64/20 27/61/20 26/59/20 25/58/20
f 27/62/4 22/50/4 23/53/4 26/60/4
f 31/69/21 32/71/21 33/73/21 34/75/21
f 35/77/22 36/80/22 37/84/22 38/85/22
f 39/87/23 40/90/23 41/91/23 42/93/23
f 32/72/24 41/92/24 40/89/24 33/74/24
f 42/94/25 31/70/25 34/76/25 39/88/25
f 34/75/26 33/73/26 36/81/26 35/78/26
f 33/74/24 40/89/24 37/83/24 36/82/24
f 40/90/27 39/87/27 38/85/27 37/84/27
f 39/88/25 34/76/25 35/79/25 38/86/25
f 43/95/28 44/97/28 45/99/28 46/101/28
f 47/103/29 48/106/29 49/110/29 50/111/29
f 51/113/30 52/116/30 53/117/30 54/119/30
f 44/98/25 53/118/25 52/115/25 45/100/25
f 54/120/24 43/96/24 46/102/24 51/114/24
f 46/101/31 45/99/31 48/107/31 47/104/31
f 45/100/25 52/115/25 49/109/25 48/108/25
f 52/116/32 51/113/32 50/111/32 49/110/32
f 51/114/24 46/102/24 47/105/24 50/112/24
f 55/121/33 56/124/34 57/127/35 58/130/36
f 61/139/37 56/125/38 55/122/39 62/142/40
f 60/136/41 59/133/42 61/140/43 62/143/44
f 57/128/45 59/134/46 60/137/47 58/131/48
f 58/132/49 60/138/50 62/144/51 55/123/52
f 59/135/53 57/129/54 56/126/55 61/141/56
