# Blender 3.1.0
# www.blender.org
mtllib weapon_ShieldRound.mtl
o Minion_ShieldRound
v 0.391448 1.063799 0.372246
v 0.000000 1.225942 0.372246
v 0.000000 1.225942 0.553591
v 0.391448 1.063799 0.553591
v -0.391448 1.063799 0.372246
v -0.391448 1.063799 0.553591
v -0.553591 0.672351 0.372246
v -0.553591 0.672351 0.553591
v -0.391448 0.280903 0.372246
v -0.391448 0.280903 0.553591
v 0.000000 0.118760 0.372246
v 0.000000 0.118760 0.553591
v 0.391448 0.280903 0.372246
v 0.391448 0.280903 0.553591
v 0.553591 0.672351 0.372246
v 0.553591 0.672351 0.553591
vn 0.3827 0.9239 -0.0000
vn -0.3827 0.9239 -0.0000
vn -0.9239 0.3827 -0.0000
vn -0.9239 -0.3827 -0.0000
vn -0.3827 -0.9239 -0.0000
vn 0.3827 -0.9239 -0.0000
vn 0.9239 -0.3827 -0.0000
vn 0.9239 0.3827 -0.0000
vn -0.0000 -0.0000 -1.0000
vn -0.0000 -0.0000 1.0000
vt 0.416570 0.707408
vt 0.498246 0.352827
vt 0.416570 0.501754
vt 0.001754 0.501754
vt 0.498246 0.147173
vt 0.504590 0.501754
vt 0.001754 0.589774
vt 0.647173 0.498246
vt 0.504590 0.707408
vt 0.852827 0.498246
vt 0.207408 0.501754
vt 0.352827 0.001754
vt 0.207408 0.589775
vt 0.501754 0.352827
vt 0.413061 0.501754
vt 0.508098 0.913061
vt 0.147173 0.001754
vt 0.413061 0.589775
vt 0.596119 0.913061
vt 0.501754 0.147173
vt 0.508098 0.707408
vt 0.001754 0.147173
vt 0.596119 0.707408
vt 0.647173 0.001754
vt 0.508098 0.501754
vt 0.413061 0.681303
vt 0.001754 0.352827
vt 0.596119 0.501754
vt 0.413061 0.593283
vt 0.852827 0.001754
vt 0.207408 0.681303
vt 0.147173 0.498246
vt 0.207408 0.593283
vt 0.998246 0.147173
vt 0.001754 0.681303
vt 0.416570 0.913061
vt 0.352827 0.498246
vt 0.001754 0.593283
vt 0.504590 0.913061
vt 0.998246 0.352827
s 0
usemtl Default_OBJ.003
f 1/1/1 2/3/1 3/6/1 4/9/1
f 2/4/2 5/11/2 6/13/2 3/7/2
f 5/11/3 7/15/3 8/18/3 6/13/3
f 7/16/4 9/21/4 10/23/4 8/19/4
f 9/21/5 11/25/5 12/28/5 10/23/5
f 11/26/6 13/31/6 14/33/6 12/29/6
f 13/31/7 15/35/7 16/38/7 14/33/7
f 15/36/8 1/1/8 4/9/8 16/39/8
s 1
f 13/32/9 11/27/9 9/22/9
f 5/12/9 2/5/9 1/2/9
s 0
f 6/14/10 4/10/10 3/8/10
s 1
f 14/34/10 10/24/10 12/30/10
s 0
f 4/10/10 6/14/10 8/20/10 16/40/10
f 14/34/10 16/40/10 8/20/10 10/24/10
s 1
f 5/12/9 1/2/9 15/37/9 7/17/9
f 13/32/9 9/22/9 7/17/9 15/37/9
