# This file uses centimeters as units for non-parametric coordinates.

v 4.631650 -1.623441 5.880344
v 5.500272 12.270597 2.491034
v -4.359550 12.885491 -4.296532
v 3.585888 11.056643 -4.200651
v -0.773472 26.056786 0.201532
v 1.426693 24.627670 2.530970
v 3.459698 24.648106 -1.818718
v 0.007390 25.663235 -2.872982
v -0.133630 32.309887 -0.704992
v 3.232926 24.832016 1.725954
v 1.357272 17.449753 4.485672
v -1.326151 17.609997 -2.411970
v 6.010941 16.584955 2.061062
v -4.631684 -1.623441 5.880344
v 5.761651 6.927392 1.524411
v -2.089981 8.136764 -3.914073
v -4.106157 9.259588 -2.264395
v -0.325502 15.171062 2.916294
v 0.547500 6.323188 4.598904
v 3.643124 22.243685 -3.712517
v 1.186756 31.660149 0.422399
v 2.222038 28.453876 -1.751828
v -3.341074 4.010268 5.346581
v 4.218954 1.048720 5.534860
v 3.630378 6.222385 4.116528
v -0.073289 36.060425 0.000000
v 0.749083 12.655723 3.977708
v -1.090259 9.162225 4.313285
v 5.022646 2.811645 -3.903054
v 4.560038 -1.094862 -5.811341
v 3.807819 2.668038 -5.209910
v -1.998935 2.320155 -5.200257
v -5.732723 -1.623441 -4.573048
v 4.911273 3.526704 -2.232744
v -4.207162 5.125866 -4.317363
v -4.848376 7.420785 -2.418160
v 5.732043 -1.049783 -4.512489
v 0.607869 10.439265 -4.858875
v 2.712501 6.723390 -3.956239
vt 0.758224 0.074727
vt 0.706182 0.022004
vt 0.736081 0.000000
vt 0.787843 0.309858
vt 0.827797 0.390699
vt 0.792972 0.455622
vt 0.120709 0.516995
vt 0.052535 0.562318
vt 0.000000 0.465991
vt 0.392880 0.320706
vt 0.386949 0.223950
vt 0.451285 0.231372
vt 0.429031 0.387936
vt 0.403846 0.620256
vt 0.234167 0.499661
vt 0.842823 0.244344
vt 0.987906 0.466913
vt 0.342996 0.062680
vt 0.331517 0.152572
vt 0.224213 0.186122
vt 0.841391 0.499958
vt 0.468946 0.451190
vt 0.555183 0.614749
vt 0.458824 0.649262
vt 0.616313 0.386321
vt 0.975746 0.592733
vt 0.910830 0.628189
vt 0.237155 0.649700
vt 0.081638 0.155051
vt 0.164536 0.163846
vt 0.000000 0.120477
vt 0.193474 0.681183
vt 0.348024 0.669708
vt 0.271934 0.280136
vt 0.084253 0.334717
vt 0.872672 0.700220
vt 0.933404 0.241212
vt 1.000000 0.282540
vt 0.786146 0.374907
vt 0.678075 0.441722
vt 0.318119 0.259411
vt 0.388382 0.309874
vt 0.229106 0.509011
vt 0.395825 0.136736
vt 0.452493 0.186759
vt 0.999017 0.222679
vt 0.972171 0.133902
vt 0.969447 0.380370
vt 0.288474 0.816746
vt 0.347258 0.746305
vt 0.498518 0.747930
vt 0.596458 0.760916
vt 0.566724 0.816059
vt 0.657247 0.258659
vt 0.957562 0.125459
vt 0.788572 0.374525
vt 0.699149 0.381774
vt 0.677161 0.176311
vt 0.307081 0.910574
vt 0.409670 0.000000
vt 0.091482 0.000000
vt 0.131587 0.011481
vt 0.657676 0.639287
vt 0.193212 0.163250
vt 0.483686 0.895867
vt 0.566696 0.868318
vt 0.279587 0.830465
vt 0.137878 0.862274
vt 0.154994 0.770358
vt 0.364030 0.365548
vt 0.257966 0.364029
vt 0.684750 0.139776
vt 0.607225 0.863546
vt 0.064709 0.624583
vt 0.121592 0.564941
vt 0.604362 0.907893
vt 0.728514 0.628317
vt 0.411864 0.000266
vt 0.706886 0.025944
vt 0.826177 0.700543
vt 0.859179 0.746790
vt 0.000000 0.219205
vt 0.090776 0.189965
vt 0.097459 0.298124
vt 0.968012 0.070827
vt 0.696508 0.079347
vt 0.736111 0.192550
vt 0.001854 0.699628
vt 0.666904 0.335692
vt 0.361837 0.096254
vt 0.996339 0.123331
vt 0.967372 0.063659
vt 0.986695 0.000000
vn -0.624505 0.301739 0.720380
vn -0.624505 0.301739 0.720380
vn -0.624505 0.301739 0.720380
vn -0.349091 0.208735 0.913545
vn -0.349091 0.208735 0.913545
vn -0.349091 0.208735 0.913545
vn -0.392557 -0.250108 -0.885068
vn -0.392557 -0.250108 -0.885068
vn -0.392557 -0.250108 -0.885068
vn -0.708896 -0.363921 -0.604175
vn -0.708896 -0.363921 -0.604175
vn -0.708896 -0.363922 -0.604175
vn 0.953462 -0.147613 -0.262906
vn 0.953462 -0.147613 -0.262906
vn 0.953462 -0.147613 -0.262906
vn 0.284529 -0.025507 0.958328
vn 0.284529 -0.025507 0.958328
vn 0.284529 -0.025507 0.958328
vn 0.346665 -0.013572 0.937891
vn 0.346664 -0.013572 0.937891
vn 0.259478 0.052078 0.964344
vn 0.259478 0.052078 0.964344
vn -0.902035 0.083767 0.423457
vn -0.902035 0.083767 0.423457
vn -0.894200 0.153389 0.420568
vn 0.221828 0.215099 -0.951065
vn 0.221828 0.215099 -0.951065
vn 0.221828 0.215099 -0.951065
vn 0.422852 -0.166641 0.890745
vn 0.422852 -0.166641 0.890745
vn 0.422852 -0.166641 0.890745
vn -0.565416 0.284655 -0.774129
vn -0.565416 0.284655 -0.774129
vn -0.565416 0.284655 -0.774129
vn -0.925951 0.276140 0.257607
vn -0.925951 0.276140 0.257607
vn -0.925951 0.276140 0.257607
vn 0.313114 -0.029971 0.949243
vn 0.313114 -0.029971 0.949243
vn 0.313114 -0.029971 0.949243
vn 0.490120 -0.001114 0.871654
vn 0.490120 -0.001114 0.871654
vn 0.490120 -0.001114 0.871654
vn 0.995561 0.020383 -0.091881
vn 0.995561 0.020383 -0.091881
vn 0.995561 0.020383 -0.091881
vn 0.869581 -0.480799 0.112525
vn 0.869581 -0.480799 0.112525
vn 0.869581 -0.480799 0.112525
vn -0.248287 0.087910 -0.964689
vn -0.248287 0.087910 -0.964689
vn -0.248287 0.087910 -0.964689
vn -0.358641 0.388737 0.848682
vn -0.358641 0.388737 0.848682
vn -0.358641 0.388737 0.848682
vn 0.421033 0.419538 0.804188
vn 0.421033 0.419538 0.804188
vn 0.421033 0.419538 0.804188
vn 0.781587 0.548731 -0.296675
vn 0.983063 0.158234 -0.092457
vn 0.983063 0.158234 -0.092457
vn -0.785430 0.317824 0.531119
vn -0.785430 0.317824 0.531119
vn -0.785430 0.317824 0.531119
vn 0.304094 -0.009698 -0.952593
vn 0.304094 -0.009698 -0.952593
vn 0.304094 -0.009698 -0.952593
vn -0.723167 0.266057 -0.637372
vn -0.723167 0.266057 -0.637372
vn -0.723167 0.266057 -0.637372
vn -0.707332 0.224499 -0.670285
vn -0.707332 0.224499 -0.670285
vn -0.707332 0.224499 -0.670285
vn 0.270901 0.033958 0.962008
vn 0.270901 0.033958 0.962008
vn 0.270901 0.033958 0.962008
vn 0.940350 -0.340116 0.007917
vn 0.940350 -0.340116 0.007917
vn 0.940350 -0.340116 0.007917
vn 0.650846 -0.102825 0.752214
vn 0.650846 -0.102825 0.752214
vn 0.650846 -0.102825 0.752214
vn 0.960665 -0.261284 0.094096
vn 0.960665 -0.261284 0.094096
vn 0.960665 -0.261284 0.094096
vn 0.949666 -0.253233 -0.184411
vn 0.949666 -0.253233 -0.184411
vn 0.949666 -0.253233 -0.184411
vn -0.056644 0.292463 -0.954598
vn -0.256232 0.439376 -0.860984
vn -0.256232 0.439376 -0.860984
vn -0.338675 0.288550 -0.895566
vn -0.338676 0.288550 -0.895566
vn -0.337182 0.286245 -0.896868
vn 0.838439 0.529482 -0.129111
vn 0.838439 0.529482 -0.129111
vn 0.838439 0.529482 -0.129111
vn -0.866121 0.403275 0.295302
vn -0.958009 0.119125 0.260821
vn -0.698271 0.313711 0.643431
vn 0.194407 0.287051 0.937981
vn 0.194407 0.287051 0.937981
vn 0.194407 0.287051 0.937981
vn 0.036904 0.032484 0.998791
vn 0.369123 0.389775 0.843697
vn -0.111973 0.207197 0.971870
vn -0.916406 0.112019 0.384256
vn -0.893926 0.152211 0.421579
vn -0.893926 0.152211 0.421579
vn 0.955027 -0.190235 -0.227453
vn 0.955027 -0.190235 -0.227453
vn 0.955027 -0.190235 -0.227453
vn 0.938913 -0.343876 0.013877
vn 0.938913 -0.343876 0.013877
vn 0.938913 -0.343876 0.013877
vn -0.016894 0.240468 -0.970510
vn -0.016894 0.240468 -0.970510
vn -0.016894 0.240468 -0.970510
vn -0.331487 0.529481 0.780875
vn -0.331487 0.529481 0.780875
vn -0.331487 0.529481 0.780875
vn -0.776860 0.612978 -0.144039
vn -0.776860 0.612978 -0.144039
vn -0.776860 0.612978 -0.144039
vn -0.343880 0.546155 0.763846
vn -0.343880 0.546155 0.763846
vn -0.343880 0.546155 0.763846
vn 0.207749 0.250215 -0.945639
vn 0.207749 0.250215 -0.945639
vn 0.207749 0.250215 -0.945639
vn -0.904158 0.197161 0.378979
vn -0.904158 0.197161 0.378979
vn -0.904158 0.197161 0.378979
vn 0.715913 -0.030017 -0.697544
vn 0.826369 -0.520305 -0.215400
vn 0.715913 -0.030017 -0.697544
vn 0.639299 0.426117 -0.640095
vn 0.639299 0.426117 -0.640095
vn 0.639299 0.426117 -0.640095
vn -0.257391 0.090690 -0.962042
vn -0.257391 0.090690 -0.962042
vn -0.257391 0.090689 -0.962042
vn 0.981472 0.187335 0.040233
vn 0.981472 0.187335 0.040233
vn 0.981472 0.187335 0.040233
vn -0.011447 0.154787 -0.987882
vn -0.011447 0.154787 -0.987882
vn -0.011447 0.154787 -0.987882
vn 0.713197 0.256267 -0.652440
vn 0.713197 0.256267 -0.652440
vn 0.713197 0.256267 -0.652439
vn 0.742817 -0.522813 0.418197
vn 0.742817 -0.522813 0.418197
vn 0.742817 -0.522813 0.418197
vn -0.975581 0.020042 0.218722
vn -0.975581 0.020042 0.218722
vn -0.975581 0.020042 0.218722
vn 0.817039 0.336353 -0.468310
vn 0.817039 0.336353 -0.468310
vn 0.817039 0.336353 -0.468310
vn -0.798486 0.190814 -0.570973
vn -0.798486 0.190814 -0.570973
vn -0.798486 0.190814 -0.570973
vn -0.969786 0.221542 0.102146
vn -0.969786 0.221542 0.102146
vn -0.969786 0.221542 0.102146
vn 0.974781 0.109776 0.194299
vn 0.974781 0.109776 0.194299
vn 0.974781 0.109776 0.194299
vn 0.971000 0.216716 0.100965
vn 0.971000 0.216716 0.100965
vn 0.971000 0.216716 0.100965
vn 0.979661 0.165896 0.112884
vn 0.979661 0.165896 0.112884
vn 0.979661 0.165896 0.112884
vn 0.183031 -0.076852 -0.980099
vn 0.183031 -0.076852 -0.980099
vn 0.183031 -0.076852 -0.980099
vn 0.000000 0.128223 0.991745
vn 0.000000 0.128223 0.991745
vn 0.000000 0.128223 0.991745
vn 0.697094 0.243644 -0.674313
vn 0.697094 0.243644 -0.674313
vn 0.697094 0.243644 -0.674313
vn 0.029023 0.135810 0.990310
vn 0.029023 0.135810 0.990310
vn 0.029023 0.135810 0.990310
vn -0.023955 0.353986 -0.934944
vn -0.023955 0.353986 -0.934944
vn -0.023955 0.353986 -0.934944
vn -0.862445 0.394435 0.317190
vn -0.862445 0.394435 0.317190
vn -0.862445 0.394435 0.317190
vn -0.661579 0.054083 0.747922
vn -0.661579 0.054083 0.747922
vn -0.661579 0.054083 0.747922
vn 0.064451 0.087904 -0.994042
vn 0.064451 0.087904 -0.994042
vn 0.064451 0.087904 -0.994042
vn -0.168794 -0.454680 -0.874514
vn -0.168794 -0.454680 -0.874514
vn -0.168794 -0.454680 -0.874514
vn 0.020848 0.308791 -0.950901
vn 0.020848 0.308791 -0.950901
vn 0.020848 0.308791 -0.950901
vn -0.116930 -0.047067 -0.992024
vn -0.116930 -0.047067 -0.992024
vn -0.116930 -0.047067 -0.992024
vn 0.011323 0.091238 0.995765
vn 0.011323 0.091238 0.995765
vn 0.011323 0.091238 0.995765
s off
f 26/1/1 9/2/2 21/3/3
f 28/4/4 27/5/5 18/6/6
f 38/7/7 16/8/8 3/9/9
f 3/10/10 16/11/11 17/12/12
f 4/13/13 20/14/14 13/15/15
f 28/4/16 19/16/17 27/5/18
f 13/17/19 27/5/20 19/16/21 2/48/22
f 3/10/23 17/12/24 18/25/25
f 9/18/26 22/19/27 8/20/28
f 27/5/29 13/17/30 11/21/31
f 12/22/32 5/23/33 8/24/34
f 12/22/35 18/25/36 5/23/37
f 13/17/38 10/26/39 6/27/40
f 11/21/41 13/17/42 6/27/43
f 13/15/44 20/14/45 10/28/46
f 20/14/47 7/33/48 10/28/49
f 8/20/50 20/34/51 12/35/52
f 5/36/53 11/21/54 6/27/55
f 19/16/56 25/37/57 15/38/58
f 4/39/59 2/70/60 15/71/61
f 5/23/62 18/25/63 11/40/64
f 20/34/65 4/43/66 38/7/67
f 16/11/68 35/44/69 36/45/70
f 17/12/71 16/11/72 36/45/73
f 15/38/74 2/48/75 19/16/76
f 21/49/77 10/28/78 22/50/79
f 21/49/80 6/32/81 10/28/82
f 22/50/83 10/28/84 7/33/85
f 20/14/86 22/50/87 7/33/88
f 38/7/89 3/9/90 12/35/91
f 20/34/92 38/7/93 12/35/94
f 39/51/95 34/52/96 29/53/97
f 28/54/98 36/45/99 23/72/100
f 25/37/101 19/16/102 24/55/103
f 23/87/104 19/16/105 28/4/106
f 17/12/107 28/54/108 18/25/109
f 13/56/110 2/57/111 4/58/112
f 26/59/113 21/49/114 22/50/115
f 26/60/116 22/19/117 9/18/118
f 21/61/119 9/62/120 5/29/121
f 5/29/122 9/62/123 8/30/124
f 21/61/125 5/29/126 6/31/127
f 22/19/128 20/34/129 8/20/130
f 28/54/131 17/12/132 36/45/133
f 4/46/134 15/64/135 39/47/136
f 39/65/137 29/53/138 31/66/139
f 33/67/140 35/68/141 32/69/142
f 29/53/143 34/52/144 37/73/145
f 31/74/146 30/75/147 32/69/148
f 31/66/149 37/73/150 30/76/151
f 34/52/152 15/63/153 25/77/154
f 33/78/155 23/72/156 36/45/157
f 34/52/158 39/51/159 15/63/160
f 36/45/161 35/44/162 33/78/163
f 14/79/164 23/72/165 33/78/166
f 34/52/167 25/77/168 37/73/169
f 37/73/170 25/77/171 24/80/172
f 37/73/173 24/80/174 1/81/175
f 38/82/176 4/83/177 39/84/178
f 1/85/179 24/55/180 14/86/181
f 37/73/182 31/66/183 29/53/184
f 24/55/185 19/16/186 23/87/187
f 39/88/188 31/74/189 32/69/190
f 3/10/191 18/25/192 12/22/193
f 11/40/194 18/25/195 27/89/196
f 35/42/197 16/41/198 39/90/199
f 16/91/200 38/92/201 39/93/202
f 32/69/203 35/68/204 39/88/205
f 32/69/206 30/75/207 33/67/208
f 14/86/209 24/55/210 23/87/211
