# This file uses centimeters as units for non-parametric coordinates.

v 0.000000 0.020694 0.000000
v 0.353589 0.957305 0.353589
v 0.558856 0.760937 0.558856
v -0.000000 0.957305 0.500050
v 0.000000 0.760937 0.790342
v -0.353589 0.957305 0.353589
v -0.558856 0.760937 0.558856
v -0.500050 0.957305 0.000000
v -0.790342 0.760937 -0.000000
v -0.353589 0.957305 -0.353589
v -0.558856 0.760937 -0.558856
v 0.000000 0.957305 -0.500050
v 0.000000 0.760937 -0.790342
v 0.353589 0.957305 -0.353589
v 0.558856 0.760937 -0.558856
v 0.500050 0.957305 -0.000000
v 0.790342 0.760937 -0.000000
vt 0.639714 0.110286
vt 0.588397 0.161603
vt 0.500000 0.052415
vt 0.500000 0.124987
vt 0.360286 0.110286
vt 0.411603 0.161603
vt 0.302415 0.250000
vt 0.374988 0.250000
vt 0.360286 0.389714
vt 0.411603 0.338397
vt 0.500000 0.447585
vt 0.500000 0.375012
vt 0.639714 0.389714
vt 0.588397 0.338397
vt 0.697585 0.250000
vt 0.625013 0.250000
vt 0.302415 0.604829
vt 0.351811 0.604829
vt 0.401207 0.604829
vt 0.450604 0.604829
vt 0.500000 0.604829
vt 0.549396 0.604829
vt 0.598793 0.604829
vt 0.648189 0.604829
vt 0.697585 0.604829
vt 0.500000 1.000000
vn 0.545793 0.806846 0.226075
vn 0.545793 0.806846 0.226075
vn 0.545793 0.806846 0.226075
vn 0.545793 0.806846 0.226075
vn 0.226075 0.806846 0.545793
vn 0.226075 0.806846 0.545793
vn 0.226075 0.806846 0.545793
vn 0.226075 0.806846 0.545793
vn -0.226075 0.806846 0.545793
vn -0.226075 0.806846 0.545793
vn -0.226075 0.806846 0.545793
vn -0.226075 0.806846 0.545793
vn -0.545793 0.806846 0.226075
vn -0.545793 0.806846 0.226075
vn -0.545793 0.806846 0.226075
vn -0.545793 0.806846 0.226075
vn -0.545793 0.806846 -0.226075
vn -0.545793 0.806846 -0.226075
vn -0.545793 0.806846 -0.226075
vn -0.545793 0.806846 -0.226075
vn -0.226075 0.806846 -0.545793
vn -0.226075 0.806846 -0.545793
vn -0.226075 0.806846 -0.545793
vn -0.226075 0.806846 -0.545793
vn 0.226075 0.806846 -0.545793
vn 0.226075 0.806846 -0.545793
vn 0.226075 0.806846 -0.545793
vn 0.226075 0.806846 -0.545793
vn 0.545793 0.806846 -0.226075
vn 0.545793 0.806846 -0.226075
vn 0.545793 0.806846 -0.226075
vn 0.545793 0.806846 -0.226075
vn 0.000000 1.000000 0.000001
vn 0.000000 1.000000 0.000001
vn 0.000000 1.000000 0.000001
vn 0.272444 -0.702251 0.657737
vn 0.272444 -0.702251 0.657737
vn 0.272444 -0.702251 0.657737
vn -0.272444 -0.702251 0.657737
vn -0.272444 -0.702251 0.657737
vn -0.272444 -0.702251 0.657737
vn -0.657737 -0.702251 0.272443
vn -0.657737 -0.702251 0.272444
vn -0.657737 -0.702251 0.272443
vn -0.657737 -0.702251 -0.272444
vn -0.657737 -0.702251 -0.272443
vn -0.657737 -0.702251 -0.272443
vn -0.272444 -0.702251 -0.657737
vn -0.272444 -0.702251 -0.657737
vn -0.272444 -0.702251 -0.657737
vn 0.272443 -0.702251 -0.657737
vn 0.272443 -0.702251 -0.657737
vn 0.272443 -0.702251 -0.657737
vn 0.657737 -0.702251 -0.272444
vn 0.657737 -0.702251 -0.272444
vn 0.657737 -0.702251 -0.272444
vn 0.657737 -0.702251 0.272444
vn 0.657737 -0.702251 0.272444
vn 0.657737 -0.702251 0.272444
vn 0.000000 1.000000 -0.000001
vn 0.000000 1.000000 -0.000001
vn 0.000000 1.000000 -0.000001
vn 0.000000 1.000000 0.000000
vn 0.000000 1.000000 0.000000
vn 0.000000 1.000000 0.000000
vn 0.000000 1.000000 0.000000
vn 0.000000 1.000000 -0.000000
vn 0.000000 1.000000 -0.000000
vn 0.000000 1.000000 -0.000000
vn 0.000000 1.000000 -0.000000
s off
f 2/2/1 3/1/2 17/15/3 16/16/4
f 3/1/5 2/2/6 4/4/7 5/3/8
f 5/3/9 4/4/10 6/6/11 7/5/12
f 7/5/13 6/6/14 8/8/15 9/7/16
f 9/7/17 8/8/18 10/10/19 11/9/20
f 11/9/21 10/10/22 12/12/23 13/11/24
f 13/11/25 12/12/26 14/14/27 15/13/28
f 15/13/29 14/14/30 16/16/31 17/15/32
f 2/2/33 6/6/34 4/4/35
f 3/17/36 5/18/37 1/26/38
f 5/18/39 7/19/40 1/26/41
f 7/19/42 9/20/43 1/26/44
f 9/20/45 11/21/46 1/26/47
f 11/21/48 13/22/49 1/26/50
f 13/22/51 15/23/52 1/26/53
f 15/23/54 17/24/55 1/26/56
f 17/24/57 3/25/58 1/26/59
f 10/10/60 14/14/61 12/12/62
f 8/8/63 16/16/64 14/14/65 10/10/66
f 2/2/67 16/16/68 8/8/69 6/6/70
