# This file uses centimeters as units for non-parametric coordinates.

v 0.000000 0.157091 0.086344
v 0.000000 1.005578 0.195876
v -0.459094 0.907980 0.242654
v -0.194414 1.078396 0.253116
v 0.000000 0.005578 0.000000
v -0.624228 0.921371 0.000000
v -0.264343 1.258271 0.000000
v 0.000000 1.098408 0.000000
v -0.252073 0.819790 0.316593
v 0.000000 0.819408 0.300188
v -0.362023 1.047826 0.182411
v -0.480438 1.179729 0.000000
v -0.353129 0.621268 0.238206
v -0.157508 0.328428 0.149946
v -0.294222 0.333987 0.000000
v -0.521062 0.612357 0.000000
v 0.000000 0.595277 0.291705
v -0.123626 0.598021 0.304080
v 0.000000 0.298572 0.190434
v 0.000000 0.157091 -0.086344
v 0.000000 1.005578 -0.195876
v 0.459094 0.907980 -0.242654
v 0.194414 1.078396 -0.253116
v 0.624228 0.921371 0.000000
v 0.264343 1.258271 0.000000
v 0.252073 0.819790 -0.316593
v 0.000000 0.819408 -0.300188
v 0.362023 1.047826 -0.182411
v 0.480438 1.179729 0.000000
v 0.353129 0.621268 -0.238206
v 0.157508 0.328428 -0.149946
v 0.294222 0.333987 0.000000
v 0.521062 0.612357 0.000000
v 0.000000 0.595277 -0.291705
v 0.123626 0.598021 -0.304080
v 0.000000 0.298572 -0.190434
v 0.459094 0.907980 0.242654
v 0.194414 1.078396 0.253116
v 0.252073 0.819790 0.316593
v 0.362023 1.047826 0.182411
v 0.353129 0.621268 0.238206
v 0.157508 0.328428 0.149946
v 0.123626 0.598021 0.304080
v -0.459094 0.907980 -0.242654
v -0.194414 1.078396 -0.253116
v -0.252073 0.819790 -0.316593
v -0.362023 1.047826 -0.182411
v -0.353129 0.621268 -0.238206
v -0.157508 0.328428 -0.149946
v -0.123626 0.598021 -0.304080
vt 0.729145 0.597839
vt 0.814800 0.597839
vt 0.814800 0.713435
vt 0.704114 0.682855
vt 0.704114 0.512823
vt 0.814800 0.482243
vt 0.900455 0.597839
vt 0.925486 0.682855
vt 0.814800 0.807932
vt 0.735033 0.756149
vt 0.814800 0.387746
vt 0.735033 0.439529
vt 0.925486 0.512823
vt 0.894567 0.756149
vt 0.894567 0.439529
vt 0.630600 0.379287
vt 0.517514 0.404501
vt 0.598757 0.294271
vt 0.556078 0.495030
vt 0.617232 0.452582
vt 0.517347 0.294271
vt 0.430701 0.448693
vt 0.674913 0.504364
vt 0.561934 0.567242
vt 0.420535 0.348332
vt 0.419335 0.294271
vt 0.517514 0.184041
vt 0.426804 0.522129
vt 0.289588 0.294271
vt 0.420535 0.240210
vt 0.630600 0.209255
vt 0.302643 0.363148
vt 0.305075 0.422933
vt 0.430701 0.139850
vt 0.556078 0.093512
vt 0.617232 0.135961
vt 0.227719 0.294271
vt 0.161463 0.294271
vt 0.302643 0.225394
vt 0.561934 0.021300
vt 0.674913 0.084179
vt 0.305075 0.165610
vt 0.426804 0.066414
vt 0.084609 0.603654
vt 0.197696 0.578440
vt 0.116452 0.688670
vt 0.159131 0.487911
vt 0.097977 0.530360
vt 0.197863 0.688670
vt 0.284509 0.534249
vt 0.040297 0.478578
vt 0.153275 0.415699
vt 0.294674 0.634609
vt 0.295874 0.688670
vt 0.197696 0.798900
vt 0.288406 0.460813
vt 0.425622 0.688670
vt 0.294674 0.742731
vt 0.084609 0.773686
vt 0.412566 0.619793
vt 0.410135 0.560009
vt 0.284509 0.843091
vt 0.159131 0.889429
vt 0.097977 0.846981
vt 0.487490 0.688670
vt 0.553746 0.688670
vt 0.412566 0.757547
vt 0.153275 0.961641
vt 0.040297 0.898763
vt 0.410135 0.817332
vt 0.288406 0.916527
vn 0.124337 0.670065 0.731815
vn -0.146165 0.113507 0.982727
vn 0.000000 0.749089 0.662469
vn -0.000000 0.184476 0.982837
vn -0.693242 0.071457 0.717154
vn -0.439180 0.549419 0.710816
vn -0.646639 0.762796 0.000000
vn -0.999331 0.036567 0.000000
vn 0.000000 1.000000 0.000000
vn 0.038917 0.999243 0.000000
vn -0.137404 -0.277946 0.950719
vn -0.000000 -0.123960 0.992287
vn -0.621032 -0.416416 0.664016
vn -0.479940 -0.527819 0.700760
vn -0.000000 -0.485971 0.873975
vn -0.881618 -0.471964 0.000000
vn -0.742100 -0.670290 0.000000
vn 0.000000 -0.646830 0.762634
vn 0.000000 -1.000000 0.000000
vn -0.124337 0.670065 -0.731815
vn 0.146165 0.113507 -0.982727
vn -0.000000 0.749089 -0.662469
vn 0.000000 0.184476 -0.982837
vn 0.693242 0.071457 -0.717154
vn 0.439180 0.549419 -0.710816
vn 0.646639 0.762796 -0.000000
vn 0.999331 0.036567 -0.000000
vn -0.038917 0.999243 -0.000000
vn 0.137404 -0.277946 -0.950719
vn 0.000000 -0.123960 -0.992287
vn 0.621032 -0.416416 -0.664016
vn 0.479940 -0.527819 -0.700760
vn 0.000000 -0.485971 -0.873975
vn 0.881618 -0.471964 -0.000000
vn 0.742100 -0.670290 -0.000000
vn -0.000000 -0.646830 -0.762634
vn -0.124337 0.670065 0.731815
vn 0.146165 0.113507 0.982727
vn 0.693242 0.071457 0.717154
vn 0.439180 0.549419 0.710816
vn 0.137404 -0.277946 0.950719
vn 0.621032 -0.416416 0.664016
vn 0.479940 -0.527819 0.700760
vn 0.124337 0.670065 -0.731815
vn -0.146165 0.113507 -0.982727
vn -0.693242 0.071457 -0.717154
vn -0.439180 0.549419 -0.710816
vn -0.137404 -0.277946 -0.950719
vn -0.621032 -0.416416 -0.664016
vn -0.479940 -0.527819 -0.700760
s 1
f 4/16/1 9/17/2 2/18/3
f 9/17/2 10/21/4 2/18/3
f 3/19/5 11/20/6 12/23/7 6/24/8
f 2/1/3 8/2/9 7/3/10 4/4/1
f 3/19/5 9/17/2 4/16/1 11/20/6
f 9/17/2 18/25/11 17/26/12 10/21/4
f 12/9/7 11/10/6 4/4/1 7/3/10
f 13/22/13 14/32/14 19/29/15 18/25/11
f 14/32/14 13/22/13 16/28/16 15/33/17
f 1/37/18 19/29/15 14/32/14
f 14/32/14 15/33/17 5/38/19 1/37/18
f 6/24/8 16/28/16 13/22/13 3/19/5
f 13/22/13 9/17/2 3/19/5
f 13/22/13 18/25/11 9/17/2
f 17/26/12 18/25/11 19/29/15
f 23/44/20 26/45/21 21/46/22
f 26/45/21 27/49/23 21/46/22
f 22/47/24 28/48/25 29/51/26 24/52/27
f 21/7/22 8/2/9 25/6/28 23/13/20
f 22/47/24 26/45/21 23/44/20 28/48/25
f 26/45/21 35/53/29 34/54/30 27/49/23
f 29/11/26 28/15/25 23/13/20 25/6/28
f 30/50/31 31/60/32 36/57/33 35/53/29
f 31/60/32 30/50/31 33/56/34 32/61/35
f 20/65/36 36/57/33 31/60/32
f 31/60/32 32/61/35 5/66/19 20/65/36
f 24/52/27 33/56/34 30/50/31 22/47/24
f 30/50/31 26/45/21 22/47/24
f 30/50/31 35/53/29 26/45/21
f 34/54/30 35/53/29 36/57/33
f 38/31/37 2/18/3 39/27/38
f 39/27/38 2/18/3 10/21/4
f 37/35/39 24/40/27 29/41/26 40/36/40
f 2/1/3 38/5/37 25/6/28 8/2/9
f 37/35/39 40/36/40 38/31/37 39/27/38
f 39/27/38 10/21/4 17/26/12 43/30/41
f 29/11/26 25/6/28 38/5/37 40/12/40
f 41/34/42 43/30/41 19/29/15 42/39/43
f 42/39/43 32/42/35 33/43/34 41/34/42
f 1/37/18 42/39/43 19/29/15
f 42/39/43 1/37/18 5/38/19 32/42/35
f 24/40/27 37/35/39 41/34/42 33/43/34
f 41/34/42 37/35/39 39/27/38
f 41/34/42 39/27/38 43/30/41
f 17/26/12 19/29/15 43/30/41
f 45/59/44 21/46/22 46/55/45
f 46/55/45 21/46/22 27/49/23
f 44/63/46 6/68/8 12/69/7 47/64/47
f 21/7/22 45/8/44 7/3/10 8/2/9
f 44/63/46 47/64/47 45/59/44 46/55/45
f 46/55/45 27/49/23 34/54/30 50/58/48
f 12/9/7 7/3/10 45/8/44 47/14/47
f 48/62/49 50/58/48 36/57/33 49/67/50
f 49/67/50 15/70/17 16/71/16 48/62/49
f 20/65/36 49/67/50 36/57/33
f 49/67/50 20/65/36 5/66/19 15/70/17
f 6/68/8 44/63/46 48/62/49 16/71/16
f 48/62/49 44/63/46 46/55/45
f 48/62/49 46/55/45 50/58/48
f 34/54/30 36/57/33 50/58/48
