# This file uses centimeters as units for non-parametric coordinates.

v 0.607527 1.144353 -0.204868
v 0.607527 1.144353 0.204868
v 0.319511 1.144356 -0.204868
v 0.319511 1.144356 0.204868
v 0.357128 0.011190 0.204868
v 0.509923 0.065883 0.204868
v 0.607527 0.197921 0.204868
v 0.178738 0.296523 0.204868
v 0.264820 0.351215 0.204868
v 0.319511 0.424287 0.204868
v 0.178736 0.296523 -0.204868
v 0.264819 0.351216 -0.204868
v 0.319511 0.424289 -0.204868
v 0.357130 0.011190 -0.204868
v 0.509924 0.065882 -0.204868
v 0.607527 0.197919 -0.204868
v -0.607527 1.144353 -0.204868
v -0.607527 1.144353 0.204868
v -0.319511 1.144356 -0.204868
v -0.319511 1.144356 0.204868
v -0.357128 0.011190 0.204868
v -0.509923 0.065883 0.204868
v -0.607527 0.197921 0.204868
v -0.178738 0.296523 0.204868
v -0.264820 0.351215 0.204868
v -0.319511 0.424287 0.204868
v -0.178736 0.296523 -0.204868
v -0.264819 0.351216 -0.204868
v -0.319511 0.424289 -0.204868
v -0.357130 0.011190 -0.204868
v -0.509924 0.065882 -0.204868
v -0.607527 0.197919 -0.204868
vt 0.382743 0.544921
vt 0.545811 0.544921
vt 0.545811 0.921584
vt 0.382743 0.921584
vt 0.382743 0.492372
vt 0.545811 0.492372
vt 0.000906 0.545139
vt 0.163973 0.545139
vt 0.163973 0.831713
vt 0.000906 0.831713
vt 0.163973 0.516057
vt 0.000906 0.516057
vt 0.163973 0.494291
vt 0.000906 0.494291
vt 0.712745 0.544921
vt 0.712745 0.921584
vt 0.549677 0.921584
vt 0.549677 0.544920
vt 0.549677 0.492372
vt 0.712745 0.492372
vt 0.332826 0.545139
vt 0.332826 0.831713
vt 0.169758 0.831713
vt 0.169758 0.545139
vt 0.169758 0.516057
vt 0.332826 0.516057
vt 0.169758 0.494291
vt 0.332826 0.494291
vt 0.115531 0.835834
vt 0.115531 0.998901
vt 0.000906 0.998901
vt 0.000906 0.835834
vt 0.881596 0.492372
vt 0.881596 0.553182
vt 0.718528 0.553181
vt 0.718528 0.492372
vt 0.881596 0.837443
vt 0.718528 0.837444
vt 0.881596 0.898253
vt 0.718528 0.898253
vt 0.117951 0.835934
vt 0.232577 0.835934
vt 0.232577 0.999002
vt 0.117951 0.999002
vt 0.379184 0.998747
vt 0.236916 0.998747
vt 0.236915 0.835680
vt 0.379185 0.835680
vt 0.377571 0.002917
vt 0.287479 0.117542
vt 0.000906 0.117542
vt 0.000907 0.002917
vt 0.316561 0.139308
vt 0.430119 0.041761
vt 0.338328 0.173568
vt 0.451885 0.102570
vt 0.451885 0.386833
vt 0.338328 0.315835
vt 0.430119 0.447642
vt 0.316561 0.350095
vt 0.377571 0.486487
vt 0.287479 0.371862
vt 0.000907 0.486487
vt 0.000906 0.371862
vt 0.620062 0.115623
vt 0.529973 0.000998
vt 0.906636 0.000998
vt 0.906637 0.115623
vt 0.477424 0.039843
vt 0.590981 0.137389
vt 0.455657 0.100652
vt 0.569215 0.171648
vt 0.569215 0.313917
vt 0.455657 0.384914
vt 0.590981 0.348176
vt 0.477424 0.445723
vt 0.620062 0.369943
vt 0.529973 0.484568
vt 0.906637 0.369943
vt 0.906636 0.484568
vn 0.000010 1.000000 0.000000
vn 0.000010 1.000000 0.000000
vn 0.000010 1.000000 0.000000
vn 0.000010 1.000000 0.000000
vn 0.995930 -0.090133 0.000000
vn 0.995930 -0.090134 0.000000
vn 1.000000 0.000000 0.000000
vn 1.000000 0.000000 0.000000
vn 0.000000 0.000000 -1.000000
vn 0.000000 0.000000 -1.000000
vn 0.000000 0.000000 -1.000000
vn 0.000000 0.000000 -1.000000
vn -0.997631 0.068792 0.000000
vn -0.997631 0.068793 0.000000
vn -1.000000 0.000000 0.000000
vn -1.000000 0.000000 0.000000
vn 0.000000 0.000000 1.000000
vn 0.000000 0.000000 1.000000
vn 0.000000 0.000000 1.000000
vn 0.000000 0.000000 1.000000
vn 0.000000 0.000000 1.000000
vn 0.000000 0.000000 1.000000
vn 0.000000 0.000000 1.000000
vn 0.000000 0.000000 1.000000
vn -0.122377 0.992484 0.000001
vn -0.536262 0.844052 0.000002
vn -0.536262 0.844052 0.000002
vn -0.122376 0.992484 0.000001
vn -0.800594 0.599208 0.000003
vn -0.800594 0.599208 0.000003
vn 0.000000 0.000000 -1.000000
vn 0.000000 0.000000 -1.000000
vn 0.000000 0.000000 -1.000000
vn 0.000000 0.000000 -1.000000
vn 0.804146 -0.594432 0.000003
vn 0.804146 -0.594432 0.000003
vn 0.337005 -0.941503 0.000002
vn 0.062952 -0.998017 0.000000
vn 0.062953 -0.998017 0.000000
vn 0.337005 -0.941503 0.000002
vn -0.000010 1.000000 0.000000
vn -0.000010 1.000000 0.000000
vn -0.000010 1.000000 0.000000
vn -0.000010 1.000000 0.000000
vn -0.000000 0.000000 1.000000
vn -0.000000 0.000000 1.000000
vn 0.122376 0.992484 0.000001
vn 0.122377 0.992484 0.000001
vn 0.000000 0.000000 -1.000000
vn 0.000000 0.000000 -1.000000
vn -0.062952 -0.998017 0.000000
vn -0.062953 -0.998017 0.000000
vn -0.995930 -0.090133 0.000000
vn -1.000000 0.000000 0.000000
vn -1.000000 0.000000 0.000000
vn -0.995930 -0.090134 0.000000
vn -0.000000 0.000000 -1.000000
vn -0.000000 0.000000 -1.000000
vn -0.000000 0.000000 -1.000000
vn -0.000000 0.000000 -1.000000
vn 0.997631 0.068792 0.000000
vn 1.000000 0.000000 0.000000
vn 1.000000 0.000000 0.000000
vn 0.997631 0.068793 0.000000
vn -0.000000 0.000000 1.000000
vn -0.000000 0.000000 1.000000
vn -0.000000 0.000000 1.000000
vn -0.000000 0.000000 1.000000
vn -0.000000 0.000000 1.000000
vn -0.000000 0.000000 1.000000
vn 0.536262 0.844052 0.000002
vn 0.536262 0.844052 0.000002
vn 0.800594 0.599208 0.000003
vn 0.800594 0.599208 0.000003
vn -0.000000 0.000000 -1.000000
vn -0.000000 0.000000 -1.000000
vn -0.804146 -0.594432 0.000003
vn -0.804146 -0.594432 0.000003
vn -0.337005 -0.941503 0.000002
vn -0.337005 -0.941503 0.000002
s off
f 2/29/1 1/30/2 3/31/3 4/32/4
s 1
f 7/1/5 16/2/6 1/3/7 2/4/8
s 2
f 16/49/9 13/50/10 3/51/11 1/52/12
s 3
f 13/7/13 10/8/14 4/9/15 3/10/16
s 4
f 10/65/17 7/66/18 2/67/19 4/68/20
f 5/71/21 6/69/22 9/70/23 8/72/24
f 6/69/22 7/66/18 10/65/17 9/70/23
s 5
f 8/13/25 9/11/26 12/12/27 11/14/28
s 3
f 9/11/29 10/8/14 13/7/13 12/12/30
s 2
f 11/55/31 12/53/32 15/54/33 14/56/34
f 12/53/32 13/50/10 16/49/9 15/54/33
s 1
f 7/1/5 6/5/35 15/6/36 16/2/6
s 6
f 6/33/37 5/34/38 14/35/39 15/36/40
s off
f 18/41/41 20/42/42 19/43/43 17/44/44
s 4
f 8/72/24 24/73/45 21/74/46 5/71/21
s 5
f 11/45/28 27/46/47 24/47/48 8/48/25
s 2
f 14/56/34 30/57/49 27/58/50 11/55/31
s 6
f 5/34/38 21/37/51 30/38/52 14/35/39
s 7
f 23/15/53 18/16/54 17/17/55 32/18/56
s 2
f 32/61/57 17/63/58 19/64/59 29/62/60
s 9
f 29/21/61 19/22/62 20/23/63 26/24/64
s 4
f 26/77/65 20/79/66 18/80/67 23/78/68
f 21/74/46 24/73/45 25/75/69 22/76/70
f 22/76/70 25/75/69 26/77/65 23/78/68
s 5
f 24/27/48 27/28/47 28/26/71 25/25/72
s 9
f 25/25/73 28/26/74 29/21/61 26/24/64
s 2
f 27/58/50 30/57/49 31/59/75 28/60/76
f 28/60/76 31/59/75 32/61/57 29/62/60
s 7
f 23/15/53 32/18/56 31/19/77 22/20/78
s 6
f 22/39/79 31/40/80 30/38/52 21/37/51
