# Blender 3.3.0
# www.blender.org
mtllib Rock_03.mtl
o Rock_03
v 0.008104 0.304549 -0.355161
v 0.253910 0.318450 -0.126170
v 0.172470 0.324372 0.159359
v 0.006489 0.314130 0.327061
v -0.264760 0.313984 0.171370
v -0.234027 0.315640 -0.123371
v -0.152715 0.034102 -0.076425
v 0.133002 0.119782 0.088534
v 0.153162 0.560874 -0.068642
v 0.130895 0.500903 0.107761
v -0.021046 0.647950 0.097840
v -0.108521 0.628623 -0.050910
v -0.084153 0.727953 0.029679
v 0.007188 0.591473 -0.180924
vn 0.6080 0.4135 -0.6777
vn -0.4102 0.4713 0.7808
vn -0.6657 -0.3058 -0.6807
vn -0.9195 0.3764 -0.1135
vn -0.6226 0.4047 -0.6697
vn -0.9512 -0.2915 -0.1008
vn -0.2386 -0.7512 0.6155
vn 0.4746 -0.7572 -0.4489
vn 0.6754 -0.3542 0.6468
vn 0.9240 -0.2714 0.2692
vn 0.5456 0.4595 0.7009
vn 0.9196 0.3090 0.2426
vn 0.1904 0.8595 -0.4744
vn 0.6395 0.7084 0.2987
vt 0.684960 0.750492
vt 0.204499 0.564832
vt 0.708204 0.013809
vt 0.458221 0.285859
vt 0.684960 0.532887
vt 0.242920 0.254272
vt 0.864157 0.218659
vt 0.422199 0.598804
vt 0.800160 0.404764
vt 0.735823 0.075582
vt 0.712579 0.737752
vt 0.240514 0.661505
vt 0.013809 0.283616
vt 0.457003 0.571185
vt 0.901078 0.289965
vt 0.854073 0.795567
vt 0.212895 0.320161
vt 0.772542 0.505268
vt 0.013809 0.618192
vt 0.254666 0.565643
vt 0.204499 0.347779
vt 0.772542 0.313478
vt 0.708204 0.230862
vt 0.203865 0.592451
vt 0.013809 0.370799
vt 0.203865 0.784524
vt 0.240514 0.313478
vt 0.458221 0.013809
vt 0.457003 0.355881
vt 0.240514 0.049437
vt 0.901078 0.505268
vt 0.864157 0.013809
vt 0.511746 0.548712
vt 0.422199 0.772739
vt 0.986191 0.731207
vt 0.678141 0.899552
vt 0.749558 0.621457
vt 0.300867 0.767569
vt 0.678141 0.778111
vt 0.146155 0.056712
vt 0.854073 0.532887
vt 0.543405 0.802894
vt 0.552424 0.350565
vt 0.485840 0.211329
vt 0.905723 0.557917
vt 0.212896 0.013809
vt 0.484622 0.400610
vt 0.986191 0.532887
vt 0.484622 0.856180
vt 0.484622 0.666449
vt 0.508060 0.098314
vt 0.881692 0.670561
s 0
usemtl Rock_02
f 1/1/1 14/50/1 9/33/1 2/5/1
f 4/13/2 11/40/2 13/46/2 5/17/2
f 1/2/3 7/25/3 6/21/3
f 5/18/4 13/47/4 12/43/4 6/22/4
f 6/23/5 12/44/5 14/51/5 1/3/5
f 6/24/6 7/26/6 5/19/6
f 5/20/7 7/27/7 8/29/7 4/14/7
f 7/28/8 1/4/8 2/6/8 8/30/8
f 4/15/9 8/31/9 3/9/9
f 8/32/10 2/7/10 3/10/10
f 3/11/11 10/37/11 11/41/11 4/16/11
f 2/8/12 9/34/12 10/38/12 3/12/12
f 9/35/13 14/52/13 12/45/13 13/48/13
f 10/39/14 9/36/14 13/49/14 11/42/14
