# Blender v3.3.0 OBJ File: 'Rock.blend'
# www.blender.org
mtllib Rock_02_Rotation.mtl
o Rock_02.001_Cone.007
v 0.349093 0.146717 0.190706
v 0.319638 -0.105979 0.487112
v 0.068069 -0.339325 0.448370
v -0.227241 0.087679 0.482270
v 0.077200 -0.020128 1.295729
v -0.115667 0.048169 0.101154
v 0.282555 -0.092847 0.067747
v -0.024827 0.161000 0.257300
v -0.049827 0.190245 0.540966
v 0.083434 0.197802 0.717199
v 0.231177 0.266614 0.306325
v -0.166215 -0.256361 0.448370
v -0.263920 -0.145868 0.647824
v -0.297939 -0.048166 0.465355
v -0.265529 -0.089551 0.306608
vt 0.661335 0.318303
vt 0.661335 0.748374
vt 0.535133 0.472032
vt 0.569700 0.369047
vt 0.506809 0.014162
vt 0.506809 0.579323
vt 0.402880 0.175530
vt 0.215644 0.399645
vt 0.374556 0.014162
vt 0.374556 0.459123
vt 0.053995 0.929104
vt 0.014162 0.834042
vt 0.128812 0.487447
vt 0.128812 0.917517
vt 0.985838 0.014162
vt 0.985838 0.210259
vt 0.896239 0.099957
vt 0.910284 0.018996
vt 0.535133 0.981690
vt 0.558508 0.842982
vt 0.639502 0.776698
vt 0.639502 0.972795
vt 0.187320 0.014162
vt 0.187320 0.459123
vt 0.014162 0.137737
vt 0.065909 0.027371
vt 0.786734 0.520453
vt 0.775459 0.303546
vt 0.867915 0.014162
vt 0.867915 0.579322
vt 0.157135 0.904715
vt 0.324769 0.724005
vt 0.324769 0.930978
vt 0.489390 0.910314
vt 0.353093 0.910314
vt 0.399242 0.724005
vt 0.775459 0.821099
vt 0.793971 0.681659
vt 0.873488 0.607646
vt 0.913655 0.821099
vt 0.352526 0.695681
vt 0.249332 0.678233
vt 0.157135 0.575286
vt 0.216406 0.494398
vt 0.352526 0.487447
vt 0.893578 0.849935
vt 0.893578 0.971830
vt 0.800430 0.927707
vt 0.775459 0.849423
vt 0.628581 0.289980
vt 0.535133 0.217729
vt 0.548369 0.076239
vt 0.747135 0.014162
vt 0.747135 0.260652
vn -0.5169 0.7981 0.3095
vn 0.9446 0.1975 0.2622
vn 0.6330 -0.7267 0.2669
vn -0.8429 0.3929 0.3675
vn -0.8329 0.4699 -0.2925
vn -0.5161 0.8346 -0.1924
vn -0.3142 -0.8873 0.3376
vn 0.7093 0.6398 0.2958
vn 0.6846 -0.7242 -0.0832
vn 0.9706 -0.2220 -0.0928
vn -0.2723 0.9621 -0.0129
vn -0.0094 0.6193 -0.7851
vn -0.8452 -0.5280 -0.0832
vn -0.2804 -0.7109 -0.6450
usemtl Rock_03
s off
f 4/1/1 5/2/1 10/3/1 9/4/1
f 1/5/2 5/6/2 2/7/2
f 2/8/3 5/9/3 3/10/3
f 14/11/4 13/12/4 5/13/4 4/14/4
f 4/15/5 6/16/5 15/17/5 14/18/5
f 9/19/6 8/20/6 6/21/6 4/22/6
f 3/23/7 5/24/7 13/25/7 12/26/7
f 11/27/8 10/28/8 5/29/8 1/30/8
f 3/31/9 7/32/9 2/33/9
f 7/34/10 1/35/10 2/36/10
f 8/37/11 9/38/11 10/39/11 11/40/11
f 6/41/12 8/42/12 11/43/12 1/44/12 7/45/12
f 12/46/13 13/47/13 14/48/13 15/49/13
f 12/50/14 15/51/14 6/52/14 7/53/14 3/54/14
