# Blender v3.2.0 OBJ File: ''
# www.blender.org
mtllib untitled.mtl
o Rock_01
v 0.245470 0.224983 0.406799
v 0.071444 -0.031719 0.973116
v 0.265781 -0.152669 0.427827
v 0.031215 -0.284416 0.308126
v -0.195966 -0.197326 0.359816
v -0.237547 0.020100 0.455050
v -0.071662 0.120213 0.071087
v -0.131601 0.224502 0.383038
v 0.022865 -0.235583 0.180311
vt 0.483201 0.013634
vt 0.483201 0.415352
vt 0.270505 0.115118
vt 0.686889 0.350124
vt 0.835732 0.013634
vt 0.835732 0.456941
vt 0.659622 0.013634
vt 0.659622 0.456941
vt 0.510468 0.054885
vt 0.920657 0.484208
vt 0.920657 0.913040
vt 0.790941 0.559397
vt 0.510468 0.930230
vt 0.743841 0.750388
vt 0.743841 0.958403
vt 0.276676 0.794672
vt 0.410647 0.442619
vt 0.410647 0.862325
vt 0.013634 0.364967
vt 0.243238 0.013634
vt 0.243238 0.415352
vt 0.862999 0.186189
vt 0.979167 0.013634
vt 0.979167 0.281215
vt 0.510468 0.570735
vt 0.763674 0.484208
vt 0.763674 0.723120
vt 0.587578 0.699318
vt 0.249409 0.442619
vt 0.249409 0.737248
vt 0.016239 0.703040
vt 0.013634 0.481204
vt 0.183021 0.764515
vt 0.183021 0.942212
vt 0.108752 0.900282
vt 0.081485 0.764515
vt 0.081485 0.986366
vt 0.013634 0.816190
vn 0.9445 0.0687 0.3214
vn 0.3365 -0.8868 0.3166
vn -0.2626 -0.8966 0.3566
vn -0.8182 -0.3547 0.4525
vn 0.0186 0.9493 -0.3138
vn -0.7033 0.5310 0.4726
vn -0.0267 0.9135 0.4059
vn -0.8876 0.3578 -0.2902
vn -0.7981 -0.2033 -0.5672
vn 0.7228 -0.0095 -0.6910
vn -0.4005 -0.8644 -0.3041
vn 0.5834 -0.7453 -0.3229
usemtl Rock_01
s 1
f 1/1/1 2/2/1 3/3/1
f 3/4/2 2/5/2 4/6/2
f 4/7/3 2/8/3 5/9/3
f 5/10/4 2/11/4 6/12/4
f 1/13/5 7/14/5 8/15/5
f 6/16/6 2/17/6 8/18/6
f 8/19/7 2/20/7 1/21/7
f 8/22/8 7/23/8 6/24/8
f 6/25/9 7/26/9 9/27/9 5/28/9
f 7/29/10 1/30/10 3/31/10 9/32/10
f 5/33/11 9/34/11 4/35/11
f 9/36/12 3/37/12 4/38/12
